<svg xmlns="http://www.w3.org/2000/svg" width="1240" height="1240"><path d="M607 95.709C371.766 100.382 162.938 243.038 86.904 451c-49.027 134.095-37.342 283.127 32.01 408.254C190.813 988.978 315.73 1084.443 466 1124.509c70.613 18.826 147.859 24.32 223.5 15.893 212.062-23.624 394.245-161.717 463.596-351.402 45.723-125.057 38.634-265.288-19.398-383.761l-4.536-9.261-1.831 2.403c-1.007 1.321-2.297 3.187-2.868 4.146-1.832 3.082-5.169.735-11.71-8.235-3.439-4.717-8.871-12.156-12.072-16.532-3.2-4.376-6.04-7.735-6.31-7.464-.271.271.486 3.714 1.682 7.651 3.905 12.857 1.967 11.352-15.366-11.935-51.535-69.239-87.079-104.33-159.793-157.758-22.51-16.54-23.849-18.402-9.894-13.754 4.47 1.489 8.355 2.478 8.634 2.199.279-.279-4.137-3.78-9.813-7.78-5.677-4-13.864-9.781-18.195-12.846-4.331-3.065-8.752-6.689-9.825-8.053-1.944-2.471-1.943-2.487.235-4.25 1.202-.974 2.756-1.77 3.452-1.77.697 0 1.813-.658 2.481-1.463 1.026-1.235-.628-2.336-10.627-7.075C792.629 113.317 701.423 93.833 607 95.709M422 459.516c-8.403 1.717-13.503 3.588-22.116 8.114-17.048 8.959-27.859 30.063-27.877 54.42-.004 6.086-.442 9.985-1.207 10.75-1.641 1.641-23.944 1.656-25.583.017-.651-.651-1.385-.983-1.63-.737-.246.246-.547 9.891-.668 21.433l-.221 20.987 11.946-.349c10.017-.292 12.161-.091 13.274 1.25.73.879 1.947 1.599 2.704 1.599 1.156 0 1.378 10.45 1.378 64.953 0 47.695-.313 65.639-1.177 67.537-.965 2.116-.895 2.866.383 4.145 1.218 1.218 2.011 1.319 3.612.463 1.326-.71 10.558-1.098 26.116-1.098 20.287 0 24.066-.226 24.066-1.441 0-.793-.45-1.719-1-2.059-1.452-.897-1.366-131.941.087-134.268.984-1.576 2.846-1.707 19.523-1.377 21.782.431 27.948-.187 26.724-2.678-.453-.922-.953-9.102-1.111-18.177-.242-13.983-.539-16.691-1.946-17.75-1.202-.906-7.333-1.25-22.268-1.25-14.696 0-20.953-.344-21.809-1.2-1.678-1.678-1.514-13.657.254-18.67 3.396-9.625 12.372-16.13 22.256-16.13 2.924 0 6.099.433 7.054.962.955.529 4.643 2.09 8.196 3.469 4.874 1.891 6.651 2.207 7.235 1.288.426-.671.788-.769.805-.219.065 2.107 1.97-2.123 1.985-4.405.008-1.323 2.322-8.721 5.141-16.439 3.71-10.16 4.858-14.465 4.156-15.595-1.304-2.1-10.543-5.723-19.282-7.561-8.781-1.847-29.924-1.838-39 .016m-190.5 69.593c-9.126 1.315-22.973 5.547-31.944 9.763-10.018 4.708-18.38 12.201-23.165 20.757-5.413 9.678-6.529 14.919-6.545 30.73-.013 13.511.065 14.018 3.109 20.201 3.78 7.678 12.722 16.185 21.517 20.47 8.158 3.975 21.084 7.225 45.528 11.448 26.962 4.658 34.601 7.039 37.006 11.532.585 1.095 1.724 1.99 2.529 1.99 3.271 0 1.347 7.561-3.215 12.637-6.05 6.73-15.939 8.955-35.788 8.051-19.339-.881-41.723-6.984-53.873-14.689l-4.754-3.015-1.569 3.755c-.864 2.066-4.93 10.71-9.037 19.21-8.58 17.755-8.852 15.921 3.201 21.573 7.837 3.676 20.01 7.512 32 10.085 14.356 3.081 52.438 2.482 69.43-1.092 14.729-3.099 29.298-9.847 38.715-17.932 19.437-16.688 20.483-53.384 2.003-70.273-10.84-9.908-20.615-13.373-57.283-20.307-27.377-5.177-33.284-7.008-37.271-11.549-2.51-2.858-3.094-4.402-3.094-8.173 0-4.263.41-5.044 4.954-9.423 6.702-6.46 12.827-8.278 28.046-8.324 7.759-.023 13.289.493 17 1.585 3.025.891 9.1 2.602 13.5 3.803s10.899 3.527 14.442 5.168c7.953 3.684 11.59 3.317 12.598-1.271.368-1.678 3.617-9.362 7.22-17.077 4.984-10.672 6.31-14.411 5.543-15.634-2.374-3.789-24.605-10.846-42.813-13.591-10.86-1.636-37.872-1.866-47.99-.408m329 .353c-42.795 8.347-69.639 34.143-77.047 74.038-1.3 7.001-1.525 11.888-1.015 22 .36 7.15.762 15.25.892 18 .647 13.657 11.113 33.022 24.949 46.162 11.944 11.343 24.715 18.596 41.317 23.465 7.089 2.08 9.817 2.309 26.458 2.219 19.488-.104 28.861-1.17 40.446-4.601 26.538-7.859 47.871-25.718 57.833-48.416 8.377-19.086 10.269-45.291 4.796-66.422-8.216-31.719-32.779-55.36-67.118-64.596-8.13-2.187-12.053-2.606-27.011-2.886-11.957-.224-19.717.104-24.5 1.037m209.02-.347c-19.299 2.81-38.723 11.083-47.764 20.343-6.674 6.836-12.144 17.334-13.754 26.397-.62 3.495-.928 11.481-.684 17.746.612 15.705 3.634 21.733 15.881 31.672 9.516 7.723 23.87 12.236 54.801 17.227 22.655 3.657 31.376 6.384 36.649 11.463 3.887 3.742 4.097 4.227 3.326 7.646-1.086 4.817-7.137 10.897-12.892 12.956-7.209 2.579-27.591 3.07-40.223.97-16.409-2.729-37.228-10.117-43.104-15.297-1.626-1.433-2.16-.658-7.827 11.362-3.344 7.095-7.443 15.681-9.108 19.08-1.664 3.398-2.722 6.671-2.351 7.272 2.127 3.442 22.955 11.459 39.354 15.148 17.964 4.041 56.741 3.203 76.045-1.644 10.85-2.724 25.832-9.693 32.106-14.935 6.877-5.746 11.876-12.562 14.088-19.212 6.888-20.696 3.256-40.45-9.732-52.928-10.219-9.819-21.859-13.952-57.331-20.352-30.669-5.534-38.843-9.047-40.403-17.363-.821-4.379.401-7.51 4.555-11.664 4.207-4.207 9.496-6.543 18.254-8.063 7.615-1.322 23.861-.79 25.84.846.69.57 3.054 1.346 5.254 1.724 5.891 1.014 19.165 5.236 25.776 8.199 4.806 2.154 6.193 2.4 8.25 1.462 1.361-.62 2.482-1.924 2.492-2.899.01-.974 3.127-8.457 6.927-16.629s6.687-15.438 6.415-16.146c-1.435-3.741-25.164-11.381-43.39-13.971-11.361-1.615-37.62-1.842-47.45-.41m199.93.292c-27.852 5.275-49.999 17.996-62.964 36.164-13.562 19.006-19.403 42.508-16.568 66.67.726 6.192 1.254 12.703 1.173 14.467-.217 4.707 5.281 18.073 11.102 26.99 12.157 18.623 31.659 32.497 55.403 39.414 7.098 2.068 9.862 2.293 27.118 2.215 30.368-.137 46.438-4.232 64.392-16.405 11.384-7.718 24.67-25.077 21.822-28.509-.653-.786-7.091-4.643-14.307-8.571-7.217-3.928-15.688-8.623-18.825-10.434l-5.705-3.292-1.99 3.192c-3.321 5.325-14.289 15.413-19.673 18.093-10.947 5.45-28.485 5.466-40.345.037-18.661-8.544-28.334-24.484-28.451-46.887-.089-17.182 4.172-28.394 14.763-38.846 8.59-8.479 16.419-12.174 28.972-13.677 6.335-.758 7.59-.567 16.229 2.481 5.15 1.817 10.874 4.236 12.72 5.377 3.085 1.907 9.788 8.606 15.506 15.496 2.07 2.495 2.503 2.641 4 1.346.923-.799 8.203-4.943 16.178-9.21 7.975-4.266 16.392-8.835 18.704-10.153l4.204-2.396-4.189-6.681c-11.196-17.857-27.531-29.456-49.719-35.306-10.71-2.824-38.325-3.702-49.55-1.575M578.5 569.685c-14.663 1.23-26.888 8.634-35.713 21.629-7.76 11.426-10.478 27.234-7.344 42.703 3.028 14.942 9.346 24.658 20.881 32.114 7.96 5.145 15.259 7.148 26.176 7.185 14.387.048 22.165-3.235 33.048-13.95 6.709-6.606 11.373-15.298 13.384-24.94 1.452-6.963 1.112-26.133-.483-27.214-.579-.391-1.842-2.82-2.808-5.396-2.856-7.617-8.908-16.028-14.713-20.448-6.742-5.133-9.544-6.522-18.645-9.246-9.676-2.895-9.241-2.818-13.783-2.437" fill="undefined" fill-rule="evenodd"/></svg>